<svg version="1.1" xmlns="http://www.w3.org/2000/svg" xmlns:xlink="http://www.w3.org/1999/xlink" width="860.130859375" height="483"><defs/><g><text fill="#eeeeee" stroke="none" font-family="Arial" font-size="24px" font-style="normal" font-weight="normal" text-decoration="none" x="0" y="0"></text><text fill="#eeeeee" stroke="none" font-family="Arial" font-size="24px" font-style="normal" font-weight="normal" text-decoration="none" x="0" y="30"></text><text fill="#eeeeee" stroke="none" font-family="Arial" font-size="24px" font-style="normal" font-weight="normal" text-decoration="none" x="0" y="60"></text><text fill="#eeeeee" stroke="none" font-family="Arial" font-size="24px" font-style="normal" font-weight="normal" text-decoration="none" x="0" y="90"></text><text fill="#eeeeee" stroke="none" font-family="Arial" font-size="24px" font-style="normal" font-weight="normal" text-decoration="none" x="0" y="120"></text><text fill="#eeeeee" stroke="none" font-family="Arial" font-size="24px" font-style="normal" font-weight="normal" text-decoration="none" x="0" y="150"></text><text fill="#eeeeee" stroke="none" font-family="Arial" font-size="24px" font-style="normal" font-weight="normal" text-decoration="none" x="0" y="180"></text><text fill="#eeeeee" stroke="none" font-family="Arial" font-size="24px" font-style="normal" font-weight="normal" text-decoration="none" x="0" y="210"></text><text fill="#eeeeee" stroke="none" font-family="Arial" font-size="24px" font-style="normal" font-weight="normal" text-decoration="none" x="0" y="240"></text><text fill="#eeeeee" stroke="none" font-family="Arial" font-size="24px" font-style="normal" font-weight="normal" text-decoration="none" x="0" y="270"></text><text fill="#eeeeee" stroke="none" font-family="Arial" font-size="24px" font-style="normal" font-weight="normal" text-decoration="none" x="0" y="300"></text><text fill="#eeeeee" stroke="none" font-family="Arial" font-size="24px" font-style="normal" font-weight="normal" text-decoration="none" x="0" y="330"></text><text fill="#eeeeee" stroke="none" font-family="Arial" font-size="24px" font-style="normal" font-weight="normal" text-decoration="none" x="0" y="360"></text><text fill="#eeeeee" stroke="none" font-family="Arial" font-size="24px" font-style="normal" font-weight="normal" text-decoration="none" x="0" y="390"></text><text fill="#eeeeee" stroke="none" font-family="Arial" font-size="24px" font-style="normal" font-weight="normal" text-decoration="none" x="0" y="420"></text><text fill="#eeeeee" stroke="none" font-family="Arial" font-size="24px" font-style="normal" font-weight="normal" text-decoration="none" x="0" y="450"></text><text fill="#eeeeee" stroke="none" font-family="Arial" font-size="24px" font-style="normal" font-weight="normal" text-decoration="none" x="0" y="480"></text><text fill="#eeeeee" stroke="none" font-family="Arial" font-size="24px" font-style="normal" font-weight="normal" text-decoration="none" x="200" y="0"></text><text fill="#eeeeee" stroke="none" font-family="Arial" font-size="24px" font-style="normal" font-weight="normal" text-decoration="none" x="200" y="30"></text><text fill="#eeeeee" stroke="none" font-family="Arial" font-size="24px" font-style="normal" font-weight="normal" text-decoration="none" x="200" y="60"></text><text fill="#eeeeee" stroke="none" font-family="Arial" font-size="24px" font-style="normal" font-weight="normal" text-decoration="none" x="200" y="90"></text><text fill="#eeeeee" stroke="none" font-family="Arial" font-size="24px" font-style="normal" font-weight="normal" text-decoration="none" x="200" y="120"></text><text fill="#eeeeee" stroke="none" font-family="Arial" font-size="24px" font-style="normal" font-weight="normal" text-decoration="none" x="200" y="150"></text><text fill="#eeeeee" stroke="none" font-family="Arial" font-size="24px" font-style="normal" font-weight="normal" text-decoration="none" x="200" y="180"></text><text fill="#eeeeee" stroke="none" font-family="Arial" font-size="24px" font-style="normal" font-weight="normal" text-decoration="none" x="200" y="210"></text><text fill="#eeeeee" stroke="none" font-family="Arial" font-size="24px" font-style="normal" font-weight="normal" text-decoration="none" x="200" y="240"></text><text fill="#eeeeee" stroke="none" font-family="Arial" font-size="24px" font-style="normal" font-weight="normal" text-decoration="none" x="200" y="270"></text><text fill="#eeeeee" stroke="none" font-family="Arial" font-size="24px" font-style="normal" font-weight="normal" text-decoration="none" x="200" y="300"></text><text fill="#eeeeee" stroke="none" font-family="Arial" font-size="24px" font-style="normal" font-weight="normal" text-decoration="none" x="200" y="330"></text><text fill="#eeeeee" stroke="none" font-family="Arial" font-size="24px" font-style="normal" font-weight="normal" text-decoration="none" x="200" y="360"></text><text fill="#eeeeee" stroke="none" font-family="Arial" font-size="24px" font-style="normal" font-weight="normal" text-decoration="none" x="200" y="390"></text><text fill="#eeeeee" stroke="none" font-family="Arial" font-size="24px" font-style="normal" font-weight="normal" text-decoration="none" x="200" y="420"></text><text fill="#eeeeee" stroke="none" font-family="Arial" font-size="24px" font-style="normal" font-weight="normal" text-decoration="none" x="200" y="450"></text><text fill="#eeeeee" stroke="none" font-family="Arial" font-size="24px" font-style="normal" font-weight="normal" text-decoration="none" x="200" y="480"></text><text fill="#eeeeee" stroke="none" font-family="Arial" font-size="24px" font-style="normal" font-weight="normal" text-decoration="none" x="400" y="0"></text><text fill="#eeeeee" stroke="none" font-family="Arial" font-size="24px" font-style="normal" font-weight="normal" text-decoration="none" x="400" y="30"></text><text fill="#eeeeee" stroke="none" font-family="Arial" font-size="24px" font-style="normal" font-weight="normal" text-decoration="none" x="400" y="60"></text><text fill="#eeeeee" stroke="none" font-family="Arial" font-size="24px" font-style="normal" font-weight="normal" text-decoration="none" x="400" y="90"></text><text fill="#eeeeee" stroke="none" font-family="Arial" font-size="24px" font-style="normal" font-weight="normal" text-decoration="none" x="400" y="120"></text><text fill="#eeeeee" stroke="none" font-family="Arial" font-size="24px" font-style="normal" font-weight="normal" text-decoration="none" x="400" y="150"></text><text fill="#eeeeee" stroke="none" font-family="Arial" font-size="24px" font-style="normal" font-weight="normal" text-decoration="none" x="400" y="180"></text><text fill="#eeeeee" stroke="none" font-family="Arial" font-size="24px" font-style="normal" font-weight="normal" text-decoration="none" x="400" y="210"></text><text fill="#eeeeee" stroke="none" font-family="Arial" font-size="24px" font-style="normal" font-weight="normal" text-decoration="none" x="400" y="240"></text><text fill="#eeeeee" stroke="none" font-family="Arial" font-size="24px" font-style="normal" font-weight="normal" text-decoration="none" x="400" y="270"></text><text fill="#eeeeee" stroke="none" font-family="Arial" font-size="24px" font-style="normal" font-weight="normal" text-decoration="none" x="400" y="300"></text><text fill="#eeeeee" stroke="none" font-family="Arial" font-size="24px" font-style="normal" font-weight="normal" text-decoration="none" x="400" y="330"></text><text fill="#eeeeee" stroke="none" font-family="Arial" font-size="24px" font-style="normal" font-weight="normal" text-decoration="none" x="400" y="360"></text><text fill="#eeeeee" stroke="none" font-family="Arial" font-size="24px" font-style="normal" font-weight="normal" text-decoration="none" x="400" y="390"></text><text fill="#eeeeee" stroke="none" font-family="Arial" font-size="24px" font-style="normal" font-weight="normal" text-decoration="none" x="400" y="420"></text><text fill="#eeeeee" stroke="none" font-family="Arial" font-size="24px" font-style="normal" font-weight="normal" text-decoration="none" x="400" y="450"></text><text fill="#eeeeee" stroke="none" font-family="Arial" font-size="24px" font-style="normal" font-weight="normal" text-decoration="none" x="400" y="480"></text><text fill="#eeeeee" stroke="none" font-family="Arial" font-size="24px" font-style="normal" font-weight="normal" text-decoration="none" x="600" y="0"></text><text fill="#eeeeee" stroke="none" font-family="Arial" font-size="24px" font-style="normal" font-weight="normal" text-decoration="none" x="600" y="30"></text><text fill="#eeeeee" stroke="none" font-family="Arial" font-size="24px" font-style="normal" font-weight="normal" text-decoration="none" x="600" y="60"></text><text fill="#eeeeee" stroke="none" font-family="Arial" font-size="24px" font-style="normal" font-weight="normal" text-decoration="none" x="600" y="90"></text><text fill="#eeeeee" stroke="none" font-family="Arial" font-size="24px" font-style="normal" font-weight="normal" text-decoration="none" x="600" y="120"></text><text fill="#eeeeee" stroke="none" font-family="Arial" font-size="24px" font-style="normal" font-weight="normal" text-decoration="none" x="600" y="150"></text><text fill="#eeeeee" stroke="none" font-family="Arial" font-size="24px" font-style="normal" font-weight="normal" text-decoration="none" x="600" y="180"></text><text fill="#eeeeee" stroke="none" font-family="Arial" font-size="24px" font-style="normal" font-weight="normal" text-decoration="none" x="600" y="210"></text><text fill="#eeeeee" stroke="none" font-family="Arial" font-size="24px" font-style="normal" font-weight="normal" text-decoration="none" x="600" y="240"></text><text fill="#eeeeee" stroke="none" font-family="Arial" font-size="24px" font-style="normal" font-weight="normal" text-decoration="none" x="600" y="270"></text><text fill="#eeeeee" stroke="none" font-family="Arial" font-size="24px" font-style="normal" font-weight="normal" text-decoration="none" x="600" y="300"></text><text fill="#eeeeee" stroke="none" font-family="Arial" font-size="24px" font-style="normal" font-weight="normal" text-decoration="none" x="600" y="330"></text><text fill="#eeeeee" stroke="none" font-family="Arial" font-size="24px" font-style="normal" font-weight="normal" text-decoration="none" x="600" y="360"></text><text fill="#eeeeee" stroke="none" font-family="Arial" font-size="24px" font-style="normal" font-weight="normal" text-decoration="none" x="600" y="390"></text><text fill="#eeeeee" stroke="none" font-family="Arial" font-size="24px" font-style="normal" font-weight="normal" text-decoration="none" x="600" y="420"></text><text fill="#eeeeee" stroke="none" font-family="Arial" font-size="24px" font-style="normal" font-weight="normal" text-decoration="none" x="600" y="450"></text><text fill="#eeeeee" stroke="none" font-family="Arial" font-size="24px" font-style="normal" font-weight="normal" text-decoration="none" x="600" y="480"></text><text fill="#eeeeee" stroke="none" font-family="Arial" font-size="24px" font-style="normal" font-weight="normal" text-decoration="none" x="800" y="0"></text><text fill="#eeeeee" stroke="none" font-family="Arial" font-size="24px" font-style="normal" font-weight="normal" text-decoration="none" x="800" y="30"></text><text fill="#eeeeee" stroke="none" font-family="Arial" font-size="24px" font-style="normal" font-weight="normal" text-decoration="none" x="800" y="60"></text><text fill="#eeeeee" stroke="none" font-family="Arial" font-size="24px" font-style="normal" font-weight="normal" text-decoration="none" x="800" y="90"></text><text fill="#eeeeee" stroke="none" font-family="Arial" font-size="24px" font-style="normal" font-weight="normal" text-decoration="none" x="800" y="120"></text><text fill="#eeeeee" stroke="none" font-family="Arial" font-size="24px" font-style="normal" font-weight="normal" text-decoration="none" x="800" y="150"></text><text fill="#eeeeee" stroke="none" font-family="Arial" font-size="24px" font-style="normal" font-weight="normal" text-decoration="none" x="800" y="180"></text><text fill="#eeeeee" stroke="none" font-family="Arial" font-size="24px" font-style="normal" font-weight="normal" text-decoration="none" x="800" y="210"></text><text fill="#eeeeee" stroke="none" font-family="Arial" font-size="24px" font-style="normal" font-weight="normal" text-decoration="none" x="800" y="240"></text><text fill="#eeeeee" stroke="none" font-family="Arial" font-size="24px" font-style="normal" font-weight="normal" text-decoration="none" x="800" y="270"></text><text fill="#eeeeee" stroke="none" font-family="Arial" font-size="24px" font-style="normal" font-weight="normal" text-decoration="none" x="800" y="300"></text><text fill="#eeeeee" stroke="none" font-family="Arial" font-size="24px" font-style="normal" font-weight="normal" text-decoration="none" x="800" y="330"></text><text fill="#eeeeee" stroke="none" font-family="Arial" font-size="24px" font-style="normal" font-weight="normal" text-decoration="none" x="800" y="360"></text><text fill="#eeeeee" stroke="none" font-family="Arial" font-size="24px" font-style="normal" font-weight="normal" text-decoration="none" x="800" y="390"></text><text fill="#eeeeee" stroke="none" font-family="Arial" font-size="24px" font-style="normal" font-weight="normal" text-decoration="none" x="800" y="420"></text><text fill="#eeeeee" stroke="none" font-family="Arial" font-size="24px" font-style="normal" font-weight="normal" text-decoration="none" x="800" y="450"></text><text fill="#eeeeee" stroke="none" font-family="Arial" font-size="24px" font-style="normal" font-weight="normal" text-decoration="none" x="800" y="480"></text><g transform="translate(-206,-326) scale(1,1)"><rect fill="#C0C0C0" stroke="none" x="231" y="575" width="57.60000000000002" height="15" opacity="0.2"/></g><g transform="translate(-206,-326) scale(1,1)"><rect fill="#C0C0C0" stroke="none" x="231" y="589" width="144" height="50" opacity="0.2"/></g><g transform="translate(-206,-326) scale(1,1)"><rect fill="#ffffff" stroke="none" x="224" y="583" width="144" height="49"/></g><g transform="translate(-206,-326) scale(1,1)"><path fill="none" stroke="#000000" d="M 224 583 L 368 583 L 368 632 L 224 632 L 224 583 Z Z" stroke-miterlimit="10"/></g><g transform="translate(-206,-326) scale(1,1)"><rect fill="#ffffff" stroke="none" x="224" y="568" width="57.60000000000002" height="15"/></g><g transform="translate(-206,-326) scale(1,1)"><path fill="none" stroke="#000000" d="M 224 568 L 281.6 568 L 281.6 583 L 224 583 L 224 568 Z Z" stroke-miterlimit="10"/></g><g transform="translate(-206,-326) scale(1,1)"><rect fill="#ffffff" stroke="none" x="224" y="582" width="144" height="50"/></g><g transform="translate(-206,-326) scale(1,1)"><path fill="none" stroke="#000000" d="M 224 582 L 368 582 L 368 632 L 224 632 L 224 582 Z Z" stroke-miterlimit="10"/></g><g transform="translate(-206,-326) scale(1,1)"><g><path fill="none" stroke="none"/><text fill="#000000" stroke="none" font-family="Arial" font-size="13px" font-style="normal" font-weight="bold" text-decoration="none" x="274.681396484375" y="602.5">Modele</text></g></g><g transform="translate(-206,-326) scale(1,1)"><rect fill="#C0C0C0" stroke="none" x="223" y="703" width="41.19999999999999" height="15" opacity="0.2"/></g><g transform="translate(-206,-326) scale(1,1)"><rect fill="#C0C0C0" stroke="none" x="223" y="717" width="103" height="49" opacity="0.2"/></g><g transform="translate(-206,-326) scale(1,1)"><rect fill="#ffffff" stroke="none" x="216" y="711" width="103" height="48"/></g><g transform="translate(-206,-326) scale(1,1)"><path fill="none" stroke="#000000" d="M 216 711 L 319 711 L 319 759 L 216 759 L 216 711 Z Z" stroke-miterlimit="10"/></g><g transform="translate(-206,-326) scale(1,1)"><rect fill="#ffffff" stroke="none" x="216" y="696" width="41.19999999999999" height="15"/></g><g transform="translate(-206,-326) scale(1,1)"><path fill="none" stroke="#000000" d="M 216 696 L 257.2 696 L 257.2 711 L 216 711 L 216 696 Z Z" stroke-miterlimit="10"/></g><g transform="translate(-206,-326) scale(1,1)"><rect fill="#ffffff" stroke="none" x="216" y="710" width="103" height="49"/></g><g transform="translate(-206,-326) scale(1,1)"><path fill="none" stroke="#000000" d="M 216 710 L 319 710 L 319 759 L 216 759 L 216 710 Z Z" stroke-miterlimit="10"/></g><g transform="translate(-206,-326) scale(1,1)"><g><path fill="none" stroke="none"/><text fill="#000000" stroke="none" font-family="Arial" font-size="13px" font-style="normal" font-weight="bold" text-decoration="none" x="248.34912109375" y="730.5">Icones</text></g></g><g transform="translate(-206,-326) scale(1,1)"><rect fill="#C0C0C0" stroke="none" x="519" y="535" width="51.200000000000045" height="15" opacity="0.2"/></g><g transform="translate(-206,-326) scale(1,1)"><rect fill="#C0C0C0" stroke="none" x="519" y="549" width="128" height="74" opacity="0.2"/></g><g transform="translate(-206,-326) scale(1,1)"><rect fill="#ffffff" stroke="none" x="512" y="543" width="128" height="73"/></g><g transform="translate(-206,-326) scale(1,1)"><path fill="none" stroke="#000000" d="M 512 543 L 640 543 L 640 616 L 512 616 L 512 543 Z Z" stroke-miterlimit="10"/></g><g transform="translate(-206,-326) scale(1,1)"><rect fill="#ffffff" stroke="none" x="512" y="528" width="51.200000000000045" height="15"/></g><g transform="translate(-206,-326) scale(1,1)"><path fill="none" stroke="#000000" d="M 512 528 L 563.2 528 L 563.2 543 L 512 543 L 512 528 Z Z" stroke-miterlimit="10"/></g><g transform="translate(-206,-326) scale(1,1)"><rect fill="#ffffff" stroke="none" x="512" y="542" width="128" height="74"/></g><g transform="translate(-206,-326) scale(1,1)"><path fill="none" stroke="#000000" d="M 512 542 L 640 542 L 640 616 L 512 616 L 512 542 Z Z" stroke-miterlimit="10"/></g><g transform="translate(-206,-326) scale(1,1)"><g><path fill="none" stroke="none"/><text fill="#000000" stroke="none" font-family="Arial" font-size="13px" font-style="normal" font-weight="bold" text-decoration="none" x="536.615966796875" y="562.5">DataManager</text></g></g><g transform="translate(-206,-326) scale(1,1)"><rect fill="#C0C0C0" stroke="none" x="599" y="735" width="57.200000000000045" height="15" opacity="0.2"/></g><g transform="translate(-206,-326) scale(1,1)"><rect fill="#C0C0C0" stroke="none" x="599" y="749" width="143" height="57" opacity="0.2"/></g><g transform="translate(-206,-326) scale(1,1)"><rect fill="#ffffff" stroke="none" x="592" y="743" width="143" height="56"/></g><g transform="translate(-206,-326) scale(1,1)"><path fill="none" stroke="#000000" d="M 592 743 L 735 743 L 735 799 L 592 799 L 592 743 Z Z" stroke-miterlimit="10"/></g><g transform="translate(-206,-326) scale(1,1)"><rect fill="#ffffff" stroke="none" x="592" y="728" width="57.200000000000045" height="15"/></g><g transform="translate(-206,-326) scale(1,1)"><path fill="none" stroke="#000000" d="M 592 728 L 649.2 728 L 649.2 743 L 592 743 L 592 728 Z Z" stroke-miterlimit="10"/></g><g transform="translate(-206,-326) scale(1,1)"><rect fill="#ffffff" stroke="none" x="592" y="742" width="143" height="57"/></g><g transform="translate(-206,-326) scale(1,1)"><path fill="none" stroke="#000000" d="M 592 742 L 735 742 L 735 799 L 592 799 L 592 742 Z Z" stroke-miterlimit="10"/></g><g transform="translate(-206,-326) scale(1,1)"><g><path fill="none" stroke="none"/><text fill="#000000" stroke="none" font-family="Arial" font-size="13px" font-style="normal" font-weight="bold" text-decoration="none" x="648.92578125" y="762.5">Vues</text></g></g><g transform="translate(-206,-326) scale(1,1)"><rect fill="#C0C0C0" stroke="none" x="927" y="575" width="54.452343749999955" height="15" opacity="0.2"/></g><g transform="translate(-206,-326) scale(1,1)"><rect fill="#C0C0C0" stroke="none" x="927" y="589" width="136.130859375" height="65" opacity="0.2"/></g><g transform="translate(-206,-326) scale(1,1)"><rect fill="#ffffff" stroke="none" x="920" y="583" width="136.130859375" height="64"/></g><g transform="translate(-206,-326) scale(1,1)"><path fill="none" stroke="#000000" d="M 920 583 L 1056.130859375 583 L 1056.130859375 647 L 920 647 L 920 583 Z Z" stroke-miterlimit="10"/></g><g transform="translate(-206,-326) scale(1,1)"><rect fill="#ffffff" stroke="none" x="920" y="568" width="54.452343749999955" height="15"/></g><g transform="translate(-206,-326) scale(1,1)"><path fill="none" stroke="#000000" d="M 920 568 L 974.45234375 568 L 974.45234375 583 L 920 583 L 920 568 Z Z" stroke-miterlimit="10"/></g><g transform="translate(-206,-326) scale(1,1)"><rect fill="#ffffff" stroke="none" x="920" y="582" width="136.130859375" height="65"/></g><g transform="translate(-206,-326) scale(1,1)"><path fill="none" stroke="#000000" d="M 920 582 L 1056.130859375 582 L 1056.130859375 647 L 920 647 L 920 582 Z Z" stroke-miterlimit="10"/></g><g transform="translate(-206,-326) scale(1,1)"><g><path fill="none" stroke="none"/><text fill="#000000" stroke="none" font-family="Arial" font-size="13px" font-style="normal" font-weight="bold" text-decoration="none" x="929.898681640625" y="602.5">FolderExplorerLogic</text></g></g><g transform="translate(-206,-326) scale(1,1)"><path fill="none" stroke="#000000" d="M 591 731 L 369 632" stroke-miterlimit="10" stroke-dasharray="3"/></g><g transform="translate(-206,-326) scale(1,1)"><path fill="none" stroke="#000000" d="M 379.99605628666063 632.2945269776967 L 369 632 L 376.567123943435 639.9836479897784" stroke-miterlimit="10"/></g><g transform="translate(-206,-326) scale(1,1)"><path fill="none" stroke="#000000" d="M 591 756 L 320 732" stroke-miterlimit="10" stroke-dasharray="3"/></g><g transform="translate(-206,-326) scale(1,1)"><path fill="none" stroke="#000000" d="M 330.49439990704207 728.7034001469582 L 320 732 L 329.7517094496974 737.0896132278084" stroke-miterlimit="10"/></g><g transform="translate(-206,-326) scale(1,1)"><path fill="none" stroke="#000000" d="M 647 727 L 596 617" stroke-miterlimit="10" stroke-dasharray="3"/></g><g transform="translate(-206,-326) scale(1,1)"><path fill="none" stroke="#000000" d="M 604.0937084135759 624.4492874904927 L 596 617 L 596.4556744046507 627.9905578037216" stroke-miterlimit="10"/></g><g transform="translate(-206,-326) scale(1,1)"><path fill="none" stroke="#000000" d="M 736 728 L 919 640" stroke-miterlimit="10" stroke-dasharray="3"/></g><g transform="translate(-206,-326) scale(1,1)"><path fill="none" stroke="#000000" d="M 911.6655249532178 648.1978945948414 L 919 640 L 908.0169560985119 640.6105298174416" stroke-miterlimit="10"/></g><g transform="translate(-206,-326) scale(1,1)"><rect fill="#C0C0C0" stroke="none" x="719" y="343" width="35.200000000000045" height="15" opacity="0.2"/></g><g transform="translate(-206,-326) scale(1,1)"><rect fill="#C0C0C0" stroke="none" x="719" y="357" width="88" height="58" opacity="0.2"/></g><g transform="translate(-206,-326) scale(1,1)"><rect fill="#ffffff" stroke="none" x="712" y="351" width="88" height="57"/></g><g transform="translate(-206,-326) scale(1,1)"><path fill="none" stroke="#000000" d="M 712 351 L 800 351 L 800 408 L 712 408 L 712 351 Z Z" stroke-miterlimit="10"/></g><g transform="translate(-206,-326) scale(1,1)"><rect fill="#ffffff" stroke="none" x="712" y="336" width="35.200000000000045" height="15"/></g><g transform="translate(-206,-326) scale(1,1)"><path fill="none" stroke="#000000" d="M 712 336 L 747.2 336 L 747.2 351 L 712 351 L 712 336 Z Z" stroke-miterlimit="10"/></g><g transform="translate(-206,-326) scale(1,1)"><rect fill="#ffffff" stroke="none" x="712" y="350" width="88" height="58"/></g><g transform="translate(-206,-326) scale(1,1)"><path fill="none" stroke="#000000" d="M 712 350 L 800 350 L 800 408 L 712 408 L 712 350 Z Z" stroke-miterlimit="10"/></g><g transform="translate(-206,-326) scale(1,1)"><g><path fill="none" stroke="none"/><text fill="#000000" stroke="none" font-family="Arial" font-size="13px" font-style="normal" font-weight="bold" text-decoration="none" x="735.760498046875" y="370.5">Logger</text></g></g><g transform="translate(-206,-326) scale(1,1)"><path fill="none" stroke="#000000" d="M 363 567 L 711 394" stroke-miterlimit="10" stroke-dasharray="3"/></g><g transform="translate(-206,-326) scale(1,1)"><path fill="none" stroke="#000000" d="M 703.7736745669338 402.2933841545789 L 711 394 L 700.0259081085303 394.7545244579059" stroke-miterlimit="10"/></g><g transform="translate(-206,-326) scale(1,1)"><path fill="none" stroke="#000000" d="M 511 579 L 369 593" stroke-miterlimit="10" stroke-dasharray="3"/></g><g transform="translate(-206,-326) scale(1,1)"><path fill="none" stroke="#000000" d="M 378.7006195610232 587.8136737344923 L 369 593 L 379.52666034509673 596.192087401524" stroke-miterlimit="10"/></g><g transform="translate(-206,-326) scale(1,1)"><path fill="none" stroke="#000000" d="M 617 527 L 723 409" stroke-miterlimit="10" stroke-dasharray="3"/></g><g transform="translate(-206,-326) scale(1,1)"><path fill="none" stroke="#000000" d="M 719.3401591765162 419.37331023091286 L 723 409 L 713.077063728021 413.74713974328154" stroke-miterlimit="10"/></g><g transform="translate(-206,-326) scale(1,1)"><path fill="none" stroke="#000000" d="M 672 727 L 747 409" stroke-miterlimit="10" stroke-dasharray="3"/></g><g transform="translate(-206,-326) scale(1,1)"><path fill="none" stroke="#000000" d="M 748.7642563050235 419.85759640483036 L 747 409 L 740.5700375517911 417.9249976422755" stroke-miterlimit="10"/></g></g></svg>