<svg version="1.1" xmlns="http://www.w3.org/2000/svg" xmlns:xlink="http://www.w3.org/1999/xlink" width="860.130859375" height="427"><defs/><g><text fill="#eeeeee" stroke="none" font-family="Arial" font-size="24px" font-style="normal" font-weight="normal" text-decoration="none" x="0" y="0"></text><text fill="#eeeeee" stroke="none" font-family="Arial" font-size="24px" font-style="normal" font-weight="normal" text-decoration="none" x="0" y="30"></text><text fill="#eeeeee" stroke="none" font-family="Arial" font-size="24px" font-style="normal" font-weight="normal" text-decoration="none" x="0" y="60"></text><text fill="#eeeeee" stroke="none" font-family="Arial" font-size="24px" font-style="normal" font-weight="normal" text-decoration="none" x="0" y="90"></text><text fill="#eeeeee" stroke="none" font-family="Arial" font-size="24px" font-style="normal" font-weight="normal" text-decoration="none" x="0" y="120"></text><text fill="#eeeeee" stroke="none" font-family="Arial" font-size="24px" font-style="normal" font-weight="normal" text-decoration="none" x="0" y="150"></text><text fill="#eeeeee" stroke="none" font-family="Arial" font-size="24px" font-style="normal" font-weight="normal" text-decoration="none" x="0" y="180"></text><text fill="#eeeeee" stroke="none" font-family="Arial" font-size="24px" font-style="normal" font-weight="normal" text-decoration="none" x="0" y="210"></text><text fill="#eeeeee" stroke="none" font-family="Arial" font-size="24px" font-style="normal" font-weight="normal" text-decoration="none" x="0" y="240"></text><text fill="#eeeeee" stroke="none" font-family="Arial" font-size="24px" font-style="normal" font-weight="normal" text-decoration="none" x="0" y="270"></text><text fill="#eeeeee" stroke="none" font-family="Arial" font-size="24px" font-style="normal" font-weight="normal" text-decoration="none" x="0" y="300"></text><text fill="#eeeeee" stroke="none" font-family="Arial" font-size="24px" font-style="normal" font-weight="normal" text-decoration="none" x="0" y="330"></text><text fill="#eeeeee" stroke="none" font-family="Arial" font-size="24px" font-style="normal" font-weight="normal" text-decoration="none" x="0" y="360"></text><text fill="#eeeeee" stroke="none" font-family="Arial" font-size="24px" font-style="normal" font-weight="normal" text-decoration="none" x="0" y="390"></text><text fill="#eeeeee" stroke="none" font-family="Arial" font-size="24px" font-style="normal" font-weight="normal" text-decoration="none" x="0" y="420"></text><text fill="#eeeeee" stroke="none" font-family="Arial" font-size="24px" font-style="normal" font-weight="normal" text-decoration="none" x="200" y="0"></text><text fill="#eeeeee" stroke="none" font-family="Arial" font-size="24px" font-style="normal" font-weight="normal" text-decoration="none" x="200" y="30"></text><text fill="#eeeeee" stroke="none" font-family="Arial" font-size="24px" font-style="normal" font-weight="normal" text-decoration="none" x="200" y="60"></text><text fill="#eeeeee" stroke="none" font-family="Arial" font-size="24px" font-style="normal" font-weight="normal" text-decoration="none" x="200" y="90"></text><text fill="#eeeeee" stroke="none" font-family="Arial" font-size="24px" font-style="normal" font-weight="normal" text-decoration="none" x="200" y="120"></text><text fill="#eeeeee" stroke="none" font-family="Arial" font-size="24px" font-style="normal" font-weight="normal" text-decoration="none" x="200" y="150"></text><text fill="#eeeeee" stroke="none" font-family="Arial" font-size="24px" font-style="normal" font-weight="normal" text-decoration="none" x="200" y="180"></text><text fill="#eeeeee" stroke="none" font-family="Arial" font-size="24px" font-style="normal" font-weight="normal" text-decoration="none" x="200" y="210"></text><text fill="#eeeeee" stroke="none" font-family="Arial" font-size="24px" font-style="normal" font-weight="normal" text-decoration="none" x="200" y="240"></text><text fill="#eeeeee" stroke="none" font-family="Arial" font-size="24px" font-style="normal" font-weight="normal" text-decoration="none" x="200" y="270"></text><text fill="#eeeeee" stroke="none" font-family="Arial" font-size="24px" font-style="normal" font-weight="normal" text-decoration="none" x="200" y="300"></text><text fill="#eeeeee" stroke="none" font-family="Arial" font-size="24px" font-style="normal" font-weight="normal" text-decoration="none" x="200" y="330"></text><text fill="#eeeeee" stroke="none" font-family="Arial" font-size="24px" font-style="normal" font-weight="normal" text-decoration="none" x="200" y="360"></text><text fill="#eeeeee" stroke="none" font-family="Arial" font-size="24px" font-style="normal" font-weight="normal" text-decoration="none" x="200" y="390"></text><text fill="#eeeeee" stroke="none" font-family="Arial" font-size="24px" font-style="normal" font-weight="normal" text-decoration="none" x="200" y="420"></text><text fill="#eeeeee" stroke="none" font-family="Arial" font-size="24px" font-style="normal" font-weight="normal" text-decoration="none" x="400" y="0"></text><text fill="#eeeeee" stroke="none" font-family="Arial" font-size="24px" font-style="normal" font-weight="normal" text-decoration="none" x="400" y="30"></text><text fill="#eeeeee" stroke="none" font-family="Arial" font-size="24px" font-style="normal" font-weight="normal" text-decoration="none" x="400" y="60"></text><text fill="#eeeeee" stroke="none" font-family="Arial" font-size="24px" font-style="normal" font-weight="normal" text-decoration="none" x="400" y="90"></text><text fill="#eeeeee" stroke="none" font-family="Arial" font-size="24px" font-style="normal" font-weight="normal" text-decoration="none" x="400" y="120"></text><text fill="#eeeeee" stroke="none" font-family="Arial" font-size="24px" font-style="normal" font-weight="normal" text-decoration="none" x="400" y="150"></text><text fill="#eeeeee" stroke="none" font-family="Arial" font-size="24px" font-style="normal" font-weight="normal" text-decoration="none" x="400" y="180"></text><text fill="#eeeeee" stroke="none" font-family="Arial" font-size="24px" font-style="normal" font-weight="normal" text-decoration="none" x="400" y="210"></text><text fill="#eeeeee" stroke="none" font-family="Arial" font-size="24px" font-style="normal" font-weight="normal" text-decoration="none" x="400" y="240"></text><text fill="#eeeeee" stroke="none" font-family="Arial" font-size="24px" font-style="normal" font-weight="normal" text-decoration="none" x="400" y="270"></text><text fill="#eeeeee" stroke="none" font-family="Arial" font-size="24px" font-style="normal" font-weight="normal" text-decoration="none" x="400" y="300"></text><text fill="#eeeeee" stroke="none" font-family="Arial" font-size="24px" font-style="normal" font-weight="normal" text-decoration="none" x="400" y="330"></text><text fill="#eeeeee" stroke="none" font-family="Arial" font-size="24px" font-style="normal" font-weight="normal" text-decoration="none" x="400" y="360"></text><text fill="#eeeeee" stroke="none" font-family="Arial" font-size="24px" font-style="normal" font-weight="normal" text-decoration="none" x="400" y="390"></text><text fill="#eeeeee" stroke="none" font-family="Arial" font-size="24px" font-style="normal" font-weight="normal" text-decoration="none" x="400" y="420"></text><text fill="#eeeeee" stroke="none" font-family="Arial" font-size="24px" font-style="normal" font-weight="normal" text-decoration="none" x="600" y="0"></text><text fill="#eeeeee" stroke="none" font-family="Arial" font-size="24px" font-style="normal" font-weight="normal" text-decoration="none" x="600" y="30"></text><text fill="#eeeeee" stroke="none" font-family="Arial" font-size="24px" font-style="normal" font-weight="normal" text-decoration="none" x="600" y="60"></text><text fill="#eeeeee" stroke="none" font-family="Arial" font-size="24px" font-style="normal" font-weight="normal" text-decoration="none" x="600" y="90"></text><text fill="#eeeeee" stroke="none" font-family="Arial" font-size="24px" font-style="normal" font-weight="normal" text-decoration="none" x="600" y="120"></text><text fill="#eeeeee" stroke="none" font-family="Arial" font-size="24px" font-style="normal" font-weight="normal" text-decoration="none" x="600" y="150"></text><text fill="#eeeeee" stroke="none" font-family="Arial" font-size="24px" font-style="normal" font-weight="normal" text-decoration="none" x="600" y="180"></text><text fill="#eeeeee" stroke="none" font-family="Arial" font-size="24px" font-style="normal" font-weight="normal" text-decoration="none" x="600" y="210"></text><text fill="#eeeeee" stroke="none" font-family="Arial" font-size="24px" font-style="normal" font-weight="normal" text-decoration="none" x="600" y="240"></text><text fill="#eeeeee" stroke="none" font-family="Arial" font-size="24px" font-style="normal" font-weight="normal" text-decoration="none" x="600" y="270"></text><text fill="#eeeeee" stroke="none" font-family="Arial" font-size="24px" font-style="normal" font-weight="normal" text-decoration="none" x="600" y="300"></text><text fill="#eeeeee" stroke="none" font-family="Arial" font-size="24px" font-style="normal" font-weight="normal" text-decoration="none" x="600" y="330"></text><text fill="#eeeeee" stroke="none" font-family="Arial" font-size="24px" font-style="normal" font-weight="normal" text-decoration="none" x="600" y="360"></text><text fill="#eeeeee" stroke="none" font-family="Arial" font-size="24px" font-style="normal" font-weight="normal" text-decoration="none" x="600" y="390"></text><text fill="#eeeeee" stroke="none" font-family="Arial" font-size="24px" font-style="normal" font-weight="normal" text-decoration="none" x="600" y="420"></text><text fill="#eeeeee" stroke="none" font-family="Arial" font-size="24px" font-style="normal" font-weight="normal" text-decoration="none" x="800" y="0"></text><text fill="#eeeeee" stroke="none" font-family="Arial" font-size="24px" font-style="normal" font-weight="normal" text-decoration="none" x="800" y="30"></text><text fill="#eeeeee" stroke="none" font-family="Arial" font-size="24px" font-style="normal" font-weight="normal" text-decoration="none" x="800" y="60"></text><text fill="#eeeeee" stroke="none" font-family="Arial" font-size="24px" font-style="normal" font-weight="normal" text-decoration="none" x="800" y="90"></text><text fill="#eeeeee" stroke="none" font-family="Arial" font-size="24px" font-style="normal" font-weight="normal" text-decoration="none" x="800" y="120"></text><text fill="#eeeeee" stroke="none" font-family="Arial" font-size="24px" font-style="normal" font-weight="normal" text-decoration="none" x="800" y="150"></text><text fill="#eeeeee" stroke="none" font-family="Arial" font-size="24px" font-style="normal" font-weight="normal" text-decoration="none" x="800" y="180"></text><text fill="#eeeeee" stroke="none" font-family="Arial" font-size="24px" font-style="normal" font-weight="normal" text-decoration="none" x="800" y="210"></text><text fill="#eeeeee" stroke="none" font-family="Arial" font-size="24px" font-style="normal" font-weight="normal" text-decoration="none" x="800" y="240"></text><text fill="#eeeeee" stroke="none" font-family="Arial" font-size="24px" font-style="normal" font-weight="normal" text-decoration="none" x="800" y="270"></text><text fill="#eeeeee" stroke="none" font-family="Arial" font-size="24px" font-style="normal" font-weight="normal" text-decoration="none" x="800" y="300"></text><text fill="#eeeeee" stroke="none" font-family="Arial" font-size="24px" font-style="normal" font-weight="normal" text-decoration="none" x="800" y="330"></text><text fill="#eeeeee" stroke="none" font-family="Arial" font-size="24px" font-style="normal" font-weight="normal" text-decoration="none" x="800" y="360"></text><text fill="#eeeeee" stroke="none" font-family="Arial" font-size="24px" font-style="normal" font-weight="normal" text-decoration="none" x="800" y="390"></text><text fill="#eeeeee" stroke="none" font-family="Arial" font-size="24px" font-style="normal" font-weight="normal" text-decoration="none" x="800" y="420"></text><g transform="translate(-206,-382) scale(1,1)"><rect fill="#C0C0C0" stroke="none" x="231" y="575" width="57.60000000000002" height="15" opacity="0.2"/></g><g transform="translate(-206,-382) scale(1,1)"><rect fill="#C0C0C0" stroke="none" x="231" y="589" width="144" height="50" opacity="0.2"/></g><g transform="translate(-206,-382) scale(1,1)"><rect fill="#ffffff" stroke="none" x="224" y="583" width="144" height="49"/></g><g transform="translate(-206,-382) scale(1,1)"><path fill="none" stroke="#000000" d="M 224 583 L 368 583 L 368 632 L 224 632 L 224 583 Z Z" stroke-miterlimit="10"/></g><g transform="translate(-206,-382) scale(1,1)"><rect fill="#ffffff" stroke="none" x="224" y="568" width="57.60000000000002" height="15"/></g><g transform="translate(-206,-382) scale(1,1)"><path fill="none" stroke="#000000" d="M 224 568 L 281.6 568 L 281.6 583 L 224 583 L 224 568 Z Z" stroke-miterlimit="10"/></g><g transform="translate(-206,-382) scale(1,1)"><rect fill="#ffffff" stroke="none" x="224" y="582" width="144" height="50"/></g><g transform="translate(-206,-382) scale(1,1)"><path fill="none" stroke="#000000" d="M 224 582 L 368 582 L 368 632 L 224 632 L 224 582 Z Z" stroke-miterlimit="10"/></g><g transform="translate(-206,-382) scale(1,1)"><g><path fill="none" stroke="none"/><text fill="#000000" stroke="none" font-family="Arial" font-size="13px" font-style="normal" font-weight="bold" text-decoration="none" x="274.681396484375" y="602.5">Modele</text></g></g><g transform="translate(-206,-382) scale(1,1)"><rect fill="#C0C0C0" stroke="none" x="223" y="703" width="41.19999999999999" height="15" opacity="0.2"/></g><g transform="translate(-206,-382) scale(1,1)"><rect fill="#C0C0C0" stroke="none" x="223" y="717" width="103" height="49" opacity="0.2"/></g><g transform="translate(-206,-382) scale(1,1)"><rect fill="#ffffff" stroke="none" x="216" y="711" width="103" height="48"/></g><g transform="translate(-206,-382) scale(1,1)"><path fill="none" stroke="#000000" d="M 216 711 L 319 711 L 319 759 L 216 759 L 216 711 Z Z" stroke-miterlimit="10"/></g><g transform="translate(-206,-382) scale(1,1)"><rect fill="#ffffff" stroke="none" x="216" y="696" width="41.19999999999999" height="15"/></g><g transform="translate(-206,-382) scale(1,1)"><path fill="none" stroke="#000000" d="M 216 696 L 257.2 696 L 257.2 711 L 216 711 L 216 696 Z Z" stroke-miterlimit="10"/></g><g transform="translate(-206,-382) scale(1,1)"><rect fill="#ffffff" stroke="none" x="216" y="710" width="103" height="49"/></g><g transform="translate(-206,-382) scale(1,1)"><path fill="none" stroke="#000000" d="M 216 710 L 319 710 L 319 759 L 216 759 L 216 710 Z Z" stroke-miterlimit="10"/></g><g transform="translate(-206,-382) scale(1,1)"><g><path fill="none" stroke="none"/><text fill="#000000" stroke="none" font-family="Arial" font-size="13px" font-style="normal" font-weight="bold" text-decoration="none" x="248.34912109375" y="730.5">Icones</text></g></g><g transform="translate(-206,-382) scale(1,1)"><rect fill="#C0C0C0" stroke="none" x="751" y="463" width="51.200000000000045" height="15" opacity="0.2"/></g><g transform="translate(-206,-382) scale(1,1)"><rect fill="#C0C0C0" stroke="none" x="751" y="477" width="128" height="74" opacity="0.2"/></g><g transform="translate(-206,-382) scale(1,1)"><rect fill="#ffffff" stroke="none" x="744" y="471" width="128" height="73"/></g><g transform="translate(-206,-382) scale(1,1)"><path fill="none" stroke="#000000" d="M 744 471 L 872 471 L 872 544 L 744 544 L 744 471 Z Z" stroke-miterlimit="10"/></g><g transform="translate(-206,-382) scale(1,1)"><rect fill="#ffffff" stroke="none" x="744" y="456" width="51.200000000000045" height="15"/></g><g transform="translate(-206,-382) scale(1,1)"><path fill="none" stroke="#000000" d="M 744 456 L 795.2 456 L 795.2 471 L 744 471 L 744 456 Z Z" stroke-miterlimit="10"/></g><g transform="translate(-206,-382) scale(1,1)"><rect fill="#ffffff" stroke="none" x="744" y="470" width="128" height="74"/></g><g transform="translate(-206,-382) scale(1,1)"><path fill="none" stroke="#000000" d="M 744 470 L 872 470 L 872 544 L 744 544 L 744 470 Z Z" stroke-miterlimit="10"/></g><g transform="translate(-206,-382) scale(1,1)"><g><path fill="none" stroke="none"/><text fill="#000000" stroke="none" font-family="Arial" font-size="13px" font-style="normal" font-weight="bold" text-decoration="none" x="768.615966796875" y="490.5">DataManager</text></g></g><g transform="translate(-206,-382) scale(1,1)"><rect fill="#C0C0C0" stroke="none" x="599" y="735" width="57.200000000000045" height="15" opacity="0.2"/></g><g transform="translate(-206,-382) scale(1,1)"><rect fill="#C0C0C0" stroke="none" x="599" y="749" width="143" height="57" opacity="0.2"/></g><g transform="translate(-206,-382) scale(1,1)"><rect fill="#ffffff" stroke="none" x="592" y="743" width="143" height="56"/></g><g transform="translate(-206,-382) scale(1,1)"><path fill="none" stroke="#000000" d="M 592 743 L 735 743 L 735 799 L 592 799 L 592 743 Z Z" stroke-miterlimit="10"/></g><g transform="translate(-206,-382) scale(1,1)"><rect fill="#ffffff" stroke="none" x="592" y="728" width="57.200000000000045" height="15"/></g><g transform="translate(-206,-382) scale(1,1)"><path fill="none" stroke="#000000" d="M 592 728 L 649.2 728 L 649.2 743 L 592 743 L 592 728 Z Z" stroke-miterlimit="10"/></g><g transform="translate(-206,-382) scale(1,1)"><rect fill="#ffffff" stroke="none" x="592" y="742" width="143" height="57"/></g><g transform="translate(-206,-382) scale(1,1)"><path fill="none" stroke="#000000" d="M 592 742 L 735 742 L 735 799 L 592 799 L 592 742 Z Z" stroke-miterlimit="10"/></g><g transform="translate(-206,-382) scale(1,1)"><g><path fill="none" stroke="none"/><text fill="#000000" stroke="none" font-family="Arial" font-size="13px" font-style="normal" font-weight="bold" text-decoration="none" x="648.92578125" y="762.5">Vues</text></g></g><g transform="translate(-206,-382) scale(1,1)"><rect fill="#C0C0C0" stroke="none" x="927" y="575" width="54.452343749999955" height="15" opacity="0.2"/></g><g transform="translate(-206,-382) scale(1,1)"><rect fill="#C0C0C0" stroke="none" x="927" y="589" width="136.130859375" height="65" opacity="0.2"/></g><g transform="translate(-206,-382) scale(1,1)"><rect fill="#ffffff" stroke="none" x="920" y="583" width="136.130859375" height="64"/></g><g transform="translate(-206,-382) scale(1,1)"><path fill="none" stroke="#000000" d="M 920 583 L 1056.130859375 583 L 1056.130859375 647 L 920 647 L 920 583 Z Z" stroke-miterlimit="10"/></g><g transform="translate(-206,-382) scale(1,1)"><rect fill="#ffffff" stroke="none" x="920" y="568" width="54.452343749999955" height="15"/></g><g transform="translate(-206,-382) scale(1,1)"><path fill="none" stroke="#000000" d="M 920 568 L 974.45234375 568 L 974.45234375 583 L 920 583 L 920 568 Z Z" stroke-miterlimit="10"/></g><g transform="translate(-206,-382) scale(1,1)"><rect fill="#ffffff" stroke="none" x="920" y="582" width="136.130859375" height="65"/></g><g transform="translate(-206,-382) scale(1,1)"><path fill="none" stroke="#000000" d="M 920 582 L 1056.130859375 582 L 1056.130859375 647 L 920 647 L 920 582 Z Z" stroke-miterlimit="10"/></g><g transform="translate(-206,-382) scale(1,1)"><g><path fill="none" stroke="none"/><text fill="#000000" stroke="none" font-family="Arial" font-size="13px" font-style="normal" font-weight="bold" text-decoration="none" x="929.898681640625" y="602.5">FolderExplorerLogic</text></g></g><g transform="translate(-206,-382) scale(1,1)"><path fill="none" stroke="#000000" d="M 591 731 L 369 632" stroke-miterlimit="10" stroke-dasharray="3"/></g><g transform="translate(-206,-382) scale(1,1)"><path fill="none" stroke="#000000" d="M 379.99605628666063 632.2945269776967 L 369 632 L 376.567123943435 639.9836479897784" stroke-miterlimit="10"/></g><g transform="translate(-206,-382) scale(1,1)"><path fill="none" stroke="#000000" d="M 591 756 L 320 732" stroke-miterlimit="10" stroke-dasharray="3"/></g><g transform="translate(-206,-382) scale(1,1)"><path fill="none" stroke="#000000" d="M 330.49439990704207 728.7034001469582 L 320 732 L 329.7517094496974 737.0896132278084" stroke-miterlimit="10"/></g><g transform="translate(-206,-382) scale(1,1)"><path fill="none" stroke="#000000" d="M 683 727 L 783 545" stroke-miterlimit="10" stroke-dasharray="3"/></g><g transform="translate(-206,-382) scale(1,1)"><path fill="none" stroke="#000000" d="M 781.7954761960344 555.9338521302275 L 783 545 L 774.4168720643405 551.8796740358902" stroke-miterlimit="10"/></g><g transform="translate(-206,-382) scale(1,1)"><path fill="none" stroke="#000000" d="M 736 728 L 919 640" stroke-miterlimit="10" stroke-dasharray="3"/></g><g transform="translate(-206,-382) scale(1,1)"><path fill="none" stroke="#000000" d="M 911.6655249532178 648.1978945948414 L 919 640 L 908.0169560985119 640.6105298174416" stroke-miterlimit="10"/></g><g transform="translate(-206,-382) scale(1,1)"><rect fill="#C0C0C0" stroke="none" x="471" y="399" width="35.19999999999999" height="15" opacity="0.2"/></g><g transform="translate(-206,-382) scale(1,1)"><rect fill="#C0C0C0" stroke="none" x="471" y="413" width="88" height="58" opacity="0.2"/></g><g transform="translate(-206,-382) scale(1,1)"><rect fill="#ffffff" stroke="none" x="464" y="407" width="88" height="57"/></g><g transform="translate(-206,-382) scale(1,1)"><path fill="none" stroke="#000000" d="M 464 407 L 552 407 L 552 464 L 464 464 L 464 407 Z Z" stroke-miterlimit="10"/></g><g transform="translate(-206,-382) scale(1,1)"><rect fill="#ffffff" stroke="none" x="464" y="392" width="35.19999999999999" height="15"/></g><g transform="translate(-206,-382) scale(1,1)"><path fill="none" stroke="#000000" d="M 464 392 L 499.2 392 L 499.2 407 L 464 407 L 464 392 Z Z" stroke-miterlimit="10"/></g><g transform="translate(-206,-382) scale(1,1)"><rect fill="#ffffff" stroke="none" x="464" y="406" width="88" height="58"/></g><g transform="translate(-206,-382) scale(1,1)"><path fill="none" stroke="#000000" d="M 464 406 L 552 406 L 552 464 L 464 464 L 464 406 Z Z" stroke-miterlimit="10"/></g><g transform="translate(-206,-382) scale(1,1)"><g><path fill="none" stroke="none"/><text fill="#000000" stroke="none" font-family="Arial" font-size="13px" font-style="normal" font-weight="bold" text-decoration="none" x="487.760498046875" y="426.5">Logger</text></g></g><g transform="translate(-206,-382) scale(1,1)"><path fill="none" stroke="#000000" d="M 337 567 L 463 465" stroke-miterlimit="10" stroke-dasharray="3"/></g><g transform="translate(-206,-382) scale(1,1)"><path fill="none" stroke="#000000" d="M 457.7497342098753 474.6661631029611 L 463 465 L 452.4524919786121 468.12251093493006" stroke-miterlimit="10"/></g><g transform="translate(-206,-382) scale(1,1)"><path fill="none" stroke="#000000" d="M 743 513 L 369 586" stroke-miterlimit="10" stroke-dasharray="3"/></g><g transform="translate(-206,-382) scale(1,1)"><path fill="none" stroke="#000000" d="M 378.1680216629774 579.9215644457495 L 369 586 L 379.78087328737246 588.1846672885405" stroke-miterlimit="10"/></g><g transform="translate(-206,-382) scale(1,1)"><path fill="none" stroke="#000000" d="M 743 484 L 553 439" stroke-miterlimit="10" stroke-dasharray="3"/></g><g transform="translate(-206,-382) scale(1,1)"><path fill="none" stroke="#000000" d="M 563.8592509072288 437.2459561767585 L 553 439 L 561.91894623702 445.4383536731952" stroke-miterlimit="10"/></g></g></svg>