<svg version="1.1" xmlns="http://www.w3.org/2000/svg" xmlns:xlink="http://www.w3.org/1999/xlink" width="948.130859375" height="603"><defs/><g><text fill="#eeeeee" stroke="none" font-family="Arial" font-size="24px" font-style="normal" font-weight="normal" text-decoration="none" x="0" y="0"></text><text fill="#eeeeee" stroke="none" font-family="Arial" font-size="24px" font-style="normal" font-weight="normal" text-decoration="none" x="0" y="30"></text><text fill="#eeeeee" stroke="none" font-family="Arial" font-size="24px" font-style="normal" font-weight="normal" text-decoration="none" x="0" y="60"></text><text fill="#eeeeee" stroke="none" font-family="Arial" font-size="24px" font-style="normal" font-weight="normal" text-decoration="none" x="0" y="90"></text><text fill="#eeeeee" stroke="none" font-family="Arial" font-size="24px" font-style="normal" font-weight="normal" text-decoration="none" x="0" y="120"></text><text fill="#eeeeee" stroke="none" font-family="Arial" font-size="24px" font-style="normal" font-weight="normal" text-decoration="none" x="0" y="150"></text><text fill="#eeeeee" stroke="none" font-family="Arial" font-size="24px" font-style="normal" font-weight="normal" text-decoration="none" x="0" y="180"></text><text fill="#eeeeee" stroke="none" font-family="Arial" font-size="24px" font-style="normal" font-weight="normal" text-decoration="none" x="0" y="210"></text><text fill="#eeeeee" stroke="none" font-family="Arial" font-size="24px" font-style="normal" font-weight="normal" text-decoration="none" x="0" y="240"></text><text fill="#eeeeee" stroke="none" font-family="Arial" font-size="24px" font-style="normal" font-weight="normal" text-decoration="none" x="0" y="270"></text><text fill="#eeeeee" stroke="none" font-family="Arial" font-size="24px" font-style="normal" font-weight="normal" text-decoration="none" x="0" y="300"></text><text fill="#eeeeee" stroke="none" font-family="Arial" font-size="24px" font-style="normal" font-weight="normal" text-decoration="none" x="0" y="330"></text><text fill="#eeeeee" stroke="none" font-family="Arial" font-size="24px" font-style="normal" font-weight="normal" text-decoration="none" x="0" y="360"></text><text fill="#eeeeee" stroke="none" font-family="Arial" font-size="24px" font-style="normal" font-weight="normal" text-decoration="none" x="0" y="390"></text><text fill="#eeeeee" stroke="none" font-family="Arial" font-size="24px" font-style="normal" font-weight="normal" text-decoration="none" x="0" y="420"></text><text fill="#eeeeee" stroke="none" font-family="Arial" font-size="24px" font-style="normal" font-weight="normal" text-decoration="none" x="0" y="450"></text><text fill="#eeeeee" stroke="none" font-family="Arial" font-size="24px" font-style="normal" font-weight="normal" text-decoration="none" x="0" y="480"></text><text fill="#eeeeee" stroke="none" font-family="Arial" font-size="24px" font-style="normal" font-weight="normal" text-decoration="none" x="0" y="510"></text><text fill="#eeeeee" stroke="none" font-family="Arial" font-size="24px" font-style="normal" font-weight="normal" text-decoration="none" x="0" y="540"></text><text fill="#eeeeee" stroke="none" font-family="Arial" font-size="24px" font-style="normal" font-weight="normal" text-decoration="none" x="0" y="570"></text><text fill="#eeeeee" stroke="none" font-family="Arial" font-size="24px" font-style="normal" font-weight="normal" text-decoration="none" x="0" y="600"></text><text fill="#eeeeee" stroke="none" font-family="Arial" font-size="24px" font-style="normal" font-weight="normal" text-decoration="none" x="200" y="0"></text><text fill="#eeeeee" stroke="none" font-family="Arial" font-size="24px" font-style="normal" font-weight="normal" text-decoration="none" x="200" y="30"></text><text fill="#eeeeee" stroke="none" font-family="Arial" font-size="24px" font-style="normal" font-weight="normal" text-decoration="none" x="200" y="60"></text><text fill="#eeeeee" stroke="none" font-family="Arial" font-size="24px" font-style="normal" font-weight="normal" text-decoration="none" x="200" y="90"></text><text fill="#eeeeee" stroke="none" font-family="Arial" font-size="24px" font-style="normal" font-weight="normal" text-decoration="none" x="200" y="120"></text><text fill="#eeeeee" stroke="none" font-family="Arial" font-size="24px" font-style="normal" font-weight="normal" text-decoration="none" x="200" y="150"></text><text fill="#eeeeee" stroke="none" font-family="Arial" font-size="24px" font-style="normal" font-weight="normal" text-decoration="none" x="200" y="180"></text><text fill="#eeeeee" stroke="none" font-family="Arial" font-size="24px" font-style="normal" font-weight="normal" text-decoration="none" x="200" y="210"></text><text fill="#eeeeee" stroke="none" font-family="Arial" font-size="24px" font-style="normal" font-weight="normal" text-decoration="none" x="200" y="240"></text><text fill="#eeeeee" stroke="none" font-family="Arial" font-size="24px" font-style="normal" font-weight="normal" text-decoration="none" x="200" y="270"></text><text fill="#eeeeee" stroke="none" font-family="Arial" font-size="24px" font-style="normal" font-weight="normal" text-decoration="none" x="200" y="300"></text><text fill="#eeeeee" stroke="none" font-family="Arial" font-size="24px" font-style="normal" font-weight="normal" text-decoration="none" x="200" y="330"></text><text fill="#eeeeee" stroke="none" font-family="Arial" font-size="24px" font-style="normal" font-weight="normal" text-decoration="none" x="200" y="360"></text><text fill="#eeeeee" stroke="none" font-family="Arial" font-size="24px" font-style="normal" font-weight="normal" text-decoration="none" x="200" y="390"></text><text fill="#eeeeee" stroke="none" font-family="Arial" font-size="24px" font-style="normal" font-weight="normal" text-decoration="none" x="200" y="420"></text><text fill="#eeeeee" stroke="none" font-family="Arial" font-size="24px" font-style="normal" font-weight="normal" text-decoration="none" x="200" y="450"></text><text fill="#eeeeee" stroke="none" font-family="Arial" font-size="24px" font-style="normal" font-weight="normal" text-decoration="none" x="200" y="480"></text><text fill="#eeeeee" stroke="none" font-family="Arial" font-size="24px" font-style="normal" font-weight="normal" text-decoration="none" x="200" y="510"></text><text fill="#eeeeee" stroke="none" font-family="Arial" font-size="24px" font-style="normal" font-weight="normal" text-decoration="none" x="200" y="540"></text><text fill="#eeeeee" stroke="none" font-family="Arial" font-size="24px" font-style="normal" font-weight="normal" text-decoration="none" x="200" y="570"></text><text fill="#eeeeee" stroke="none" font-family="Arial" font-size="24px" font-style="normal" font-weight="normal" text-decoration="none" x="200" y="600"></text><text fill="#eeeeee" stroke="none" font-family="Arial" font-size="24px" font-style="normal" font-weight="normal" text-decoration="none" x="400" y="0"></text><text fill="#eeeeee" stroke="none" font-family="Arial" font-size="24px" font-style="normal" font-weight="normal" text-decoration="none" x="400" y="30"></text><text fill="#eeeeee" stroke="none" font-family="Arial" font-size="24px" font-style="normal" font-weight="normal" text-decoration="none" x="400" y="60"></text><text fill="#eeeeee" stroke="none" font-family="Arial" font-size="24px" font-style="normal" font-weight="normal" text-decoration="none" x="400" y="90"></text><text fill="#eeeeee" stroke="none" font-family="Arial" font-size="24px" font-style="normal" font-weight="normal" text-decoration="none" x="400" y="120"></text><text fill="#eeeeee" stroke="none" font-family="Arial" font-size="24px" font-style="normal" font-weight="normal" text-decoration="none" x="400" y="150"></text><text fill="#eeeeee" stroke="none" font-family="Arial" font-size="24px" font-style="normal" font-weight="normal" text-decoration="none" x="400" y="180"></text><text fill="#eeeeee" stroke="none" font-family="Arial" font-size="24px" font-style="normal" font-weight="normal" text-decoration="none" x="400" y="210"></text><text fill="#eeeeee" stroke="none" font-family="Arial" font-size="24px" font-style="normal" font-weight="normal" text-decoration="none" x="400" y="240"></text><text fill="#eeeeee" stroke="none" font-family="Arial" font-size="24px" font-style="normal" font-weight="normal" text-decoration="none" x="400" y="270"></text><text fill="#eeeeee" stroke="none" font-family="Arial" font-size="24px" font-style="normal" font-weight="normal" text-decoration="none" x="400" y="300"></text><text fill="#eeeeee" stroke="none" font-family="Arial" font-size="24px" font-style="normal" font-weight="normal" text-decoration="none" x="400" y="330"></text><text fill="#eeeeee" stroke="none" font-family="Arial" font-size="24px" font-style="normal" font-weight="normal" text-decoration="none" x="400" y="360"></text><text fill="#eeeeee" stroke="none" font-family="Arial" font-size="24px" font-style="normal" font-weight="normal" text-decoration="none" x="400" y="390"></text><text fill="#eeeeee" stroke="none" font-family="Arial" font-size="24px" font-style="normal" font-weight="normal" text-decoration="none" x="400" y="420"></text><text fill="#eeeeee" stroke="none" font-family="Arial" font-size="24px" font-style="normal" font-weight="normal" text-decoration="none" x="400" y="450"></text><text fill="#eeeeee" stroke="none" font-family="Arial" font-size="24px" font-style="normal" font-weight="normal" text-decoration="none" x="400" y="480"></text><text fill="#eeeeee" stroke="none" font-family="Arial" font-size="24px" font-style="normal" font-weight="normal" text-decoration="none" x="400" y="510"></text><text fill="#eeeeee" stroke="none" font-family="Arial" font-size="24px" font-style="normal" font-weight="normal" text-decoration="none" x="400" y="540"></text><text fill="#eeeeee" stroke="none" font-family="Arial" font-size="24px" font-style="normal" font-weight="normal" text-decoration="none" x="400" y="570"></text><text fill="#eeeeee" stroke="none" font-family="Arial" font-size="24px" font-style="normal" font-weight="normal" text-decoration="none" x="400" y="600"></text><text fill="#eeeeee" stroke="none" font-family="Arial" font-size="24px" font-style="normal" font-weight="normal" text-decoration="none" x="600" y="0"></text><text fill="#eeeeee" stroke="none" font-family="Arial" font-size="24px" font-style="normal" font-weight="normal" text-decoration="none" x="600" y="30"></text><text fill="#eeeeee" stroke="none" font-family="Arial" font-size="24px" font-style="normal" font-weight="normal" text-decoration="none" x="600" y="60"></text><text fill="#eeeeee" stroke="none" font-family="Arial" font-size="24px" font-style="normal" font-weight="normal" text-decoration="none" x="600" y="90"></text><text fill="#eeeeee" stroke="none" font-family="Arial" font-size="24px" font-style="normal" font-weight="normal" text-decoration="none" x="600" y="120"></text><text fill="#eeeeee" stroke="none" font-family="Arial" font-size="24px" font-style="normal" font-weight="normal" text-decoration="none" x="600" y="150"></text><text fill="#eeeeee" stroke="none" font-family="Arial" font-size="24px" font-style="normal" font-weight="normal" text-decoration="none" x="600" y="180"></text><text fill="#eeeeee" stroke="none" font-family="Arial" font-size="24px" font-style="normal" font-weight="normal" text-decoration="none" x="600" y="210"></text><text fill="#eeeeee" stroke="none" font-family="Arial" font-size="24px" font-style="normal" font-weight="normal" text-decoration="none" x="600" y="240"></text><text fill="#eeeeee" stroke="none" font-family="Arial" font-size="24px" font-style="normal" font-weight="normal" text-decoration="none" x="600" y="270"></text><text fill="#eeeeee" stroke="none" font-family="Arial" font-size="24px" font-style="normal" font-weight="normal" text-decoration="none" x="600" y="300"></text><text fill="#eeeeee" stroke="none" font-family="Arial" font-size="24px" font-style="normal" font-weight="normal" text-decoration="none" x="600" y="330"></text><text fill="#eeeeee" stroke="none" font-family="Arial" font-size="24px" font-style="normal" font-weight="normal" text-decoration="none" x="600" y="360"></text><text fill="#eeeeee" stroke="none" font-family="Arial" font-size="24px" font-style="normal" font-weight="normal" text-decoration="none" x="600" y="390"></text><text fill="#eeeeee" stroke="none" font-family="Arial" font-size="24px" font-style="normal" font-weight="normal" text-decoration="none" x="600" y="420"></text><text fill="#eeeeee" stroke="none" font-family="Arial" font-size="24px" font-style="normal" font-weight="normal" text-decoration="none" x="600" y="450"></text><text fill="#eeeeee" stroke="none" font-family="Arial" font-size="24px" font-style="normal" font-weight="normal" text-decoration="none" x="600" y="480"></text><text fill="#eeeeee" stroke="none" font-family="Arial" font-size="24px" font-style="normal" font-weight="normal" text-decoration="none" x="600" y="510"></text><text fill="#eeeeee" stroke="none" font-family="Arial" font-size="24px" font-style="normal" font-weight="normal" text-decoration="none" x="600" y="540"></text><text fill="#eeeeee" stroke="none" font-family="Arial" font-size="24px" font-style="normal" font-weight="normal" text-decoration="none" x="600" y="570"></text><text fill="#eeeeee" stroke="none" font-family="Arial" font-size="24px" font-style="normal" font-weight="normal" text-decoration="none" x="600" y="600"></text><text fill="#eeeeee" stroke="none" font-family="Arial" font-size="24px" font-style="normal" font-weight="normal" text-decoration="none" x="800" y="0"></text><text fill="#eeeeee" stroke="none" font-family="Arial" font-size="24px" font-style="normal" font-weight="normal" text-decoration="none" x="800" y="30"></text><text fill="#eeeeee" stroke="none" font-family="Arial" font-size="24px" font-style="normal" font-weight="normal" text-decoration="none" x="800" y="60"></text><text fill="#eeeeee" stroke="none" font-family="Arial" font-size="24px" font-style="normal" font-weight="normal" text-decoration="none" x="800" y="90"></text><text fill="#eeeeee" stroke="none" font-family="Arial" font-size="24px" font-style="normal" font-weight="normal" text-decoration="none" x="800" y="120"></text><text fill="#eeeeee" stroke="none" font-family="Arial" font-size="24px" font-style="normal" font-weight="normal" text-decoration="none" x="800" y="150"></text><text fill="#eeeeee" stroke="none" font-family="Arial" font-size="24px" font-style="normal" font-weight="normal" text-decoration="none" x="800" y="180"></text><text fill="#eeeeee" stroke="none" font-family="Arial" font-size="24px" font-style="normal" font-weight="normal" text-decoration="none" x="800" y="210"></text><text fill="#eeeeee" stroke="none" font-family="Arial" font-size="24px" font-style="normal" font-weight="normal" text-decoration="none" x="800" y="240"></text><text fill="#eeeeee" stroke="none" font-family="Arial" font-size="24px" font-style="normal" font-weight="normal" text-decoration="none" x="800" y="270"></text><text fill="#eeeeee" stroke="none" font-family="Arial" font-size="24px" font-style="normal" font-weight="normal" text-decoration="none" x="800" y="300"></text><text fill="#eeeeee" stroke="none" font-family="Arial" font-size="24px" font-style="normal" font-weight="normal" text-decoration="none" x="800" y="330"></text><text fill="#eeeeee" stroke="none" font-family="Arial" font-size="24px" font-style="normal" font-weight="normal" text-decoration="none" x="800" y="360"></text><text fill="#eeeeee" stroke="none" font-family="Arial" font-size="24px" font-style="normal" font-weight="normal" text-decoration="none" x="800" y="390"></text><text fill="#eeeeee" stroke="none" font-family="Arial" font-size="24px" font-style="normal" font-weight="normal" text-decoration="none" x="800" y="420"></text><text fill="#eeeeee" stroke="none" font-family="Arial" font-size="24px" font-style="normal" font-weight="normal" text-decoration="none" x="800" y="450"></text><text fill="#eeeeee" stroke="none" font-family="Arial" font-size="24px" font-style="normal" font-weight="normal" text-decoration="none" x="800" y="480"></text><text fill="#eeeeee" stroke="none" font-family="Arial" font-size="24px" font-style="normal" font-weight="normal" text-decoration="none" x="800" y="510"></text><text fill="#eeeeee" stroke="none" font-family="Arial" font-size="24px" font-style="normal" font-weight="normal" text-decoration="none" x="800" y="540"></text><text fill="#eeeeee" stroke="none" font-family="Arial" font-size="24px" font-style="normal" font-weight="normal" text-decoration="none" x="800" y="570"></text><text fill="#eeeeee" stroke="none" font-family="Arial" font-size="24px" font-style="normal" font-weight="normal" text-decoration="none" x="800" y="600"></text><g transform="translate(-70,-46) scale(1,1)"><rect fill="#C0C0C0" stroke="none" x="735" y="63" width="54.39999999999998" height="15" opacity="0.2"/></g><g transform="translate(-70,-46) scale(1,1)"><rect fill="#C0C0C0" stroke="none" x="735" y="77" width="136" height="66" opacity="0.2"/></g><g transform="translate(-70,-46) scale(1,1)"><rect fill="#38ff38" stroke="none" x="728" y="71" width="136" height="65"/></g><g transform="translate(-70,-46) scale(1,1)"><path fill="none" stroke="#000000" d="M 728 71 L 864 71 L 864 136 L 728 136 L 728 71 Z Z" stroke-miterlimit="10"/></g><g transform="translate(-70,-46) scale(1,1)"><rect fill="#38ff38" stroke="none" x="728" y="56" width="54.39999999999998" height="15"/></g><g transform="translate(-70,-46) scale(1,1)"><path fill="none" stroke="#000000" d="M 728 56 L 782.4 56 L 782.4 71 L 728 71 L 728 56 Z Z" stroke-miterlimit="10"/></g><g transform="translate(-70,-46) scale(1,1)"><rect fill="#38ff38" stroke="none" x="728" y="70" width="136" height="66"/></g><g transform="translate(-70,-46) scale(1,1)"><path fill="none" stroke="#000000" d="M 728 70 L 864 70 L 864 136 L 728 136 L 728 70 Z Z" stroke-miterlimit="10"/></g><g transform="translate(-70,-46) scale(1,1)"><g><path fill="none" stroke="none"/><text fill="#000000" stroke="none" font-family="Arial" font-size="13px" font-style="normal" font-weight="bold" text-decoration="none" x="774.681396484375" y="90.5">Modele</text></g></g><g transform="translate(-70,-46) scale(1,1)"><rect fill="#C0C0C0" stroke="none" x="199" y="543" width="41.19999999999999" height="15" opacity="0.2"/></g><g transform="translate(-70,-46) scale(1,1)"><rect fill="#C0C0C0" stroke="none" x="199" y="557" width="103" height="49" opacity="0.2"/></g><g transform="translate(-70,-46) scale(1,1)"><rect fill="#568eff" stroke="none" x="192" y="551" width="103" height="48"/></g><g transform="translate(-70,-46) scale(1,1)"><path fill="none" stroke="#000000" d="M 192 551 L 295 551 L 295 599 L 192 599 L 192 551 Z Z" stroke-miterlimit="10"/></g><g transform="translate(-70,-46) scale(1,1)"><rect fill="#568eff" stroke="none" x="192" y="536" width="41.19999999999999" height="15"/></g><g transform="translate(-70,-46) scale(1,1)"><path fill="none" stroke="#000000" d="M 192 536 L 233.2 536 L 233.2 551 L 192 551 L 192 536 Z Z" stroke-miterlimit="10"/></g><g transform="translate(-70,-46) scale(1,1)"><rect fill="#568eff" stroke="none" x="192" y="550" width="103" height="49"/></g><g transform="translate(-70,-46) scale(1,1)"><path fill="none" stroke="#000000" d="M 192 550 L 295 550 L 295 599 L 192 599 L 192 550 Z Z" stroke-miterlimit="10"/></g><g transform="translate(-70,-46) scale(1,1)"><g><path fill="none" stroke="none"/><text fill="#000000" stroke="none" font-family="Arial" font-size="13px" font-style="normal" font-weight="bold" text-decoration="none" x="224.34912109375" y="570.5">Icones</text></g></g><g transform="translate(-70,-46) scale(1,1)"><rect fill="#C0C0C0" stroke="none" x="495" y="335" width="51.200000000000045" height="15" opacity="0.2"/></g><g transform="translate(-70,-46) scale(1,1)"><rect fill="#C0C0C0" stroke="none" x="495" y="349" width="128" height="74" opacity="0.2"/></g><g transform="translate(-70,-46) scale(1,1)"><rect fill="#fb0000" stroke="none" x="488" y="343" width="128" height="73"/></g><g transform="translate(-70,-46) scale(1,1)"><path fill="none" stroke="#000000" d="M 488 343 L 616 343 L 616 416 L 488 416 L 488 343 Z Z" stroke-miterlimit="10"/></g><g transform="translate(-70,-46) scale(1,1)"><rect fill="#fb0000" stroke="none" x="488" y="328" width="51.200000000000045" height="15"/></g><g transform="translate(-70,-46) scale(1,1)"><path fill="none" stroke="#000000" d="M 488 328 L 539.2 328 L 539.2 343 L 488 343 L 488 328 Z Z" stroke-miterlimit="10"/></g><g transform="translate(-70,-46) scale(1,1)"><rect fill="#fb0000" stroke="none" x="488" y="342" width="128" height="74"/></g><g transform="translate(-70,-46) scale(1,1)"><path fill="none" stroke="#000000" d="M 488 342 L 616 342 L 616 416 L 488 416 L 488 342 Z Z" stroke-miterlimit="10"/></g><g transform="translate(-70,-46) scale(1,1)"><g><path fill="none" stroke="none"/><text fill="#000000" stroke="none" font-family="Arial" font-size="13px" font-style="normal" font-weight="bold" text-decoration="none" x="518.0400390625" y="362.5">Persistance</text></g></g><g transform="translate(-70,-46) scale(1,1)"><rect fill="#C0C0C0" stroke="none" x="575" y="575" width="57.200000000000045" height="15" opacity="0.2"/></g><g transform="translate(-70,-46) scale(1,1)"><rect fill="#C0C0C0" stroke="none" x="575" y="589" width="143" height="57" opacity="0.2"/></g><g transform="translate(-70,-46) scale(1,1)"><rect fill="#38bcff" stroke="none" x="568" y="583" width="143" height="56"/></g><g transform="translate(-70,-46) scale(1,1)"><path fill="none" stroke="#000000" d="M 568 583 L 711 583 L 711 639 L 568 639 L 568 583 Z Z" stroke-miterlimit="10"/></g><g transform="translate(-70,-46) scale(1,1)"><rect fill="#38bcff" stroke="none" x="568" y="568" width="57.200000000000045" height="15"/></g><g transform="translate(-70,-46) scale(1,1)"><path fill="none" stroke="#000000" d="M 568 568 L 625.2 568 L 625.2 583 L 568 583 L 568 568 Z Z" stroke-miterlimit="10"/></g><g transform="translate(-70,-46) scale(1,1)"><rect fill="#38bcff" stroke="none" x="568" y="582" width="143" height="57"/></g><g transform="translate(-70,-46) scale(1,1)"><path fill="none" stroke="#000000" d="M 568 582 L 711 582 L 711 639 L 568 639 L 568 582 Z Z" stroke-miterlimit="10"/></g><g transform="translate(-70,-46) scale(1,1)"><g><path fill="none" stroke="none"/><text fill="#000000" stroke="none" font-family="Arial" font-size="13px" font-style="normal" font-weight="bold" text-decoration="none" x="624.92578125" y="602.5">Vues</text></g></g><g transform="translate(-70,-46) scale(1,1)"><rect fill="#C0C0C0" stroke="none" x="879" y="399" width="54.452343749999955" height="15" opacity="0.2"/></g><g transform="translate(-70,-46) scale(1,1)"><rect fill="#C0C0C0" stroke="none" x="879" y="413" width="136.130859375" height="65" opacity="0.2"/></g><g transform="translate(-70,-46) scale(1,1)"><rect fill="#00d8b4" stroke="none" x="872" y="407" width="136.130859375" height="64"/></g><g transform="translate(-70,-46) scale(1,1)"><path fill="none" stroke="#000000" d="M 872 407 L 1008.130859375 407 L 1008.130859375 471 L 872 471 L 872 407 Z Z" stroke-miterlimit="10"/></g><g transform="translate(-70,-46) scale(1,1)"><rect fill="#00d8b4" stroke="none" x="872" y="392" width="54.452343749999955" height="15"/></g><g transform="translate(-70,-46) scale(1,1)"><path fill="none" stroke="#000000" d="M 872 392 L 926.45234375 392 L 926.45234375 407 L 872 407 L 872 392 Z Z" stroke-miterlimit="10"/></g><g transform="translate(-70,-46) scale(1,1)"><rect fill="#00d8b4" stroke="none" x="872" y="406" width="136.130859375" height="65"/></g><g transform="translate(-70,-46) scale(1,1)"><path fill="none" stroke="#000000" d="M 872 406 L 1008.130859375 406 L 1008.130859375 471 L 872 471 L 872 406 Z Z" stroke-miterlimit="10"/></g><g transform="translate(-70,-46) scale(1,1)"><g><path fill="none" stroke="none"/><text fill="#000000" stroke="none" font-family="Arial" font-size="13px" font-style="normal" font-weight="bold" text-decoration="none" x="897.437744140625" y="426.5">FolderExplorer</text></g></g><g transform="translate(-70,-46) scale(1,1)"><path fill="none" stroke="#000000" d="M 650 567 L 783 137" stroke-miterlimit="10" stroke-dasharray="3"/></g><g transform="translate(-70,-46) scale(1,1)"><path fill="none" stroke="#000000" d="M 784.0185692553463 147.95274014445988 L 783 137 L 775.9754803988418 145.46499405628524" stroke-miterlimit="10"/></g><g transform="translate(-70,-46) scale(1,1)"><path fill="none" stroke="#000000" d="M 567 596 L 296 572" stroke-miterlimit="10" stroke-dasharray="3"/></g><g transform="translate(-70,-46) scale(1,1)"><path fill="none" stroke="#000000" d="M 306.49439990704207 568.7034001469582 L 296 572 L 305.7517094496974 577.0896132278084" stroke-miterlimit="10"/></g><g transform="translate(-70,-46) scale(1,1)"><path fill="none" stroke="#000000" d="M 625 567 L 569 417" stroke-miterlimit="10" stroke-dasharray="3"/></g><g transform="translate(-70,-46) scale(1,1)"><path fill="none" stroke="#000000" d="M 576.4980888548757 425.048519337393 L 569 417 L 568.6107868732403 427.99311207720353" stroke-miterlimit="10"/></g><g transform="translate(-70,-46) scale(1,1)"><path fill="none" stroke="#000000" d="M 702 567 L 871 470" stroke-miterlimit="10" stroke-dasharray="3"/></g><g transform="translate(-70,-46) scale(1,1)"><path fill="none" stroke="#000000" d="M 864.2814530314802 478.70982931128924 L 871 470 L 860.0904905098494 471.4080492478293" stroke-miterlimit="10"/></g><g transform="translate(-70,-46) scale(1,1)"><rect fill="#C0C0C0" stroke="none" x="87" y="167" width="35.2" height="15" opacity="0.2"/></g><g transform="translate(-70,-46) scale(1,1)"><rect fill="#C0C0C0" stroke="none" x="87" y="181" width="88" height="58" opacity="0.2"/></g><g transform="translate(-70,-46) scale(1,1)"><rect fill="#ffbf00" stroke="none" x="80" y="175" width="88" height="57"/></g><g transform="translate(-70,-46) scale(1,1)"><path fill="none" stroke="#000000" d="M 80 175 L 168 175 L 168 232 L 80 232 L 80 175 Z Z" stroke-miterlimit="10"/></g><g transform="translate(-70,-46) scale(1,1)"><rect fill="#ffbf00" stroke="none" x="80" y="160" width="35.2" height="15"/></g><g transform="translate(-70,-46) scale(1,1)"><path fill="none" stroke="#000000" d="M 80 160 L 115.2 160 L 115.2 175 L 80 175 L 80 160 Z Z" stroke-miterlimit="10"/></g><g transform="translate(-70,-46) scale(1,1)"><rect fill="#ffbf00" stroke="none" x="80" y="174" width="88" height="58"/></g><g transform="translate(-70,-46) scale(1,1)"><path fill="none" stroke="#000000" d="M 80 174 L 168 174 L 168 232 L 80 232 L 80 174 Z Z" stroke-miterlimit="10"/></g><g transform="translate(-70,-46) scale(1,1)"><g><path fill="none" stroke="none"/><text fill="#000000" stroke="none" font-family="Arial" font-size="13px" font-style="normal" font-weight="bold" text-decoration="none" x="103.760498046875" y="194.5">Logger</text></g></g><g transform="translate(-70,-46) scale(1,1)"><path fill="none" stroke="#000000" d="M 727 106 L 169 189" stroke-miterlimit="10" stroke-dasharray="3"/></g><g transform="translate(-70,-46) scale(1,1)"><path fill="none" stroke="#000000" d="M 178.43274799188006 183.3410897407997 L 169 189 L 179.67141388868885 191.66850625187553" stroke-miterlimit="10"/></g><g transform="translate(-70,-46) scale(1,1)"><path fill="none" stroke="#000000" d="M 592 327 L 760 137" stroke-miterlimit="10" stroke-dasharray="3"/></g><g transform="translate(-70,-46) scale(1,1)"><path fill="none" stroke="#000000" d="M 756.4217542599605 147.40173819243157 L 760 137 L 750.1146585604707 141.82493778446167" stroke-miterlimit="10"/></g><g transform="translate(-70,-46) scale(1,1)"><path fill="none" stroke="#000000" d="M 487 345 L 169 215" stroke-miterlimit="10" stroke-dasharray="3"/></g><g transform="translate(-70,-46) scale(1,1)"><path fill="none" stroke="#000000" d="M 179.99988233745185 214.94912208519528 L 169 215 L 176.81406751163738 222.7421152744953" stroke-miterlimit="10"/></g><g transform="translate(-70,-46) scale(1,1)"><path fill="none" stroke="#000000" d="M 593 567 L 169 232" stroke-miterlimit="10" stroke-dasharray="3"/></g><g transform="translate(-70,-46) scale(1,1)"><path fill="none" stroke="#000000" d="M 179.58376708233112 234.9973111862074 L 169 232 L 174.36443440932175 241.60327253950885" stroke-miterlimit="10"/></g><g transform="translate(-70,-46) scale(1,1)"><rect fill="#C0C0C0" stroke="none" x="439" y="207" width="38.39999999999998" height="15" opacity="0.2"/></g><g transform="translate(-70,-46) scale(1,1)"><rect fill="#C0C0C0" stroke="none" x="439" y="221" width="96" height="66" opacity="0.2"/></g><g transform="translate(-70,-46) scale(1,1)"><rect fill="#a05000" stroke="none" x="432" y="215" width="96" height="65"/></g><g transform="translate(-70,-46) scale(1,1)"><path fill="none" stroke="#000000" d="M 432 215 L 528 215 L 528 280 L 432 280 L 432 215 Z Z" stroke-miterlimit="10"/></g><g transform="translate(-70,-46) scale(1,1)"><rect fill="#a05000" stroke="none" x="432" y="200" width="38.39999999999998" height="15"/></g><g transform="translate(-70,-46) scale(1,1)"><path fill="none" stroke="#000000" d="M 432 200 L 470.4 200 L 470.4 215 L 432 215 L 432 200 Z Z" stroke-miterlimit="10"/></g><g transform="translate(-70,-46) scale(1,1)"><rect fill="#a05000" stroke="none" x="432" y="214" width="96" height="66"/></g><g transform="translate(-70,-46) scale(1,1)"><path fill="none" stroke="#000000" d="M 432 214 L 528 214 L 528 280 L 432 280 L 432 214 Z Z" stroke-miterlimit="10"/></g><g transform="translate(-70,-46) scale(1,1)"><g><path fill="none" stroke="none"/><text fill="#000000" stroke="none" font-family="Arial" font-size="13px" font-style="normal" font-weight="bold" text-decoration="none" x="466.628662109375" y="234.5">Stub</text></g></g><g transform="translate(-70,-46) scale(1,1)"><path fill="none" stroke="#000000" d="M 527 327 L 502 281" stroke-miterlimit="10" stroke-dasharray="3"/></g><g transform="translate(-70,-46) scale(1,1)"><path fill="none" stroke="#000000" d="M 510.55139808952805 287.9190744116837 L 502 281 L 503.15422714169506 291.93927601376686" stroke-miterlimit="10"/></g><g transform="translate(-70,-46) scale(1,1)"><path fill="none" stroke="#000000" d="M 529 218 L 727 127" stroke-miterlimit="10" stroke-dasharray="3"/></g><g transform="translate(-70,-46) scale(1,1)"><path fill="none" stroke="#000000" d="M 719.523796393346 135.06885243587044 L 727 127 L 716.007985458406 127.41906600600116" stroke-miterlimit="10"/></g></g></svg>